HIERARCHY
ROOT Hips
{
	OFFSET 0.00000 0.00000 0.00000
	CHANNELS 6 Xposition Yposition Zposition Zrotation Yrotation Xrotation 
	JOINT LHipJoint
	{
		OFFSET 0 0 0
		CHANNELS 3 Zrotation Yrotation Xrotation
		JOINT LeftUpLeg
		{
			OFFSET 2.36090 -1.39315 1.24752
			CHANNELS 3 Zrotation Yrotation Xrotation
			JOINT LeftLeg
			{
				OFFSET 2.06810 -5.68207 0.00000
				CHANNELS 3 Zrotation Yrotation Xrotation
				JOINT LeftFoot
				{
					OFFSET 2.46631 -6.77613 0.00000
					CHANNELS 3 Zrotation Yrotation Xrotation
					JOINT LeftToeBase
					{
						OFFSET 0.26031 -0.71520 1.99545
						CHANNELS 3 Zrotation Yrotation Xrotation
						End Site
						{
							OFFSET 0.00000 -0.00000 1.05957
						}
					}
				}
			}
		}
	}
	JOINT RHipJoint
	{
		OFFSET 0 0 0
		CHANNELS 3 Zrotation Yrotation Xrotation
		JOINT RightUpLeg
		{
			OFFSET -2.25243 -1.39315 1.24752
			CHANNELS 3 Zrotation Yrotation Xrotation
			JOINT RightLeg
			{
				OFFSET -2.17343 -5.97145 0.00000
				CHANNELS 3 Zrotation Yrotation Xrotation
				JOINT RightFoot
				{
					OFFSET -2.52372 -6.93386 0.00000
					CHANNELS 3 Zrotation Yrotation Xrotation
					JOINT RightToeBase
					{
						OFFSET -0.22538 -0.61923 2.11447
						CHANNELS 3 Zrotation Yrotation Xrotation
						End Site
						{
							OFFSET -0.00000 -0.00000 1.10506
						}
					}
				}
			}
		}
	}
	JOINT LowerBack
	{
		OFFSET 0 0 0
		CHANNELS 3 Zrotation Yrotation Xrotation
		JOINT Spine
		{
			OFFSET 0.01594 2.13103 0.08007
			CHANNELS 3 Zrotation Yrotation Xrotation
			JOINT Spine1
			{
				OFFSET 0.01393 2.09723 0.18338
				CHANNELS 3 Zrotation Yrotation Xrotation
				JOINT Neck
				{
					OFFSET 0 0 0
					CHANNELS 3 Zrotation Yrotation Xrotation
					JOINT Neck1
					{
						OFFSET 0.05351 1.38915 0.32494
						CHANNELS 3 Zrotation Yrotation Xrotation
						JOINT Head
						{
							OFFSET 0.00711 1.45992 -0.21666
							CHANNELS 3 Zrotation Yrotation Xrotation
							End Site
							{
								OFFSET -0.00433 1.47702 -0.11056
							}
						}
					}
				}
				JOINT LeftShoulder
				{
					OFFSET 0 0 0
					CHANNELS 3 Zrotation Yrotation Xrotation
					JOINT LeftArm
					{
						OFFSET 2.87198 0.92249 0.11132
						CHANNELS 3 Zrotation Yrotation Xrotation
						JOINT LeftForeArm
						{
							OFFSET 5.52731 -0.00000 0.00000
							CHANNELS 3 Zrotation Yrotation Xrotation
							JOINT LeftHand
							{
								OFFSET 3.11059 -0.00000 0.00000
								CHANNELS 3 Zrotation Yrotation Xrotation
								JOINT LeftFingerBase
								{
									OFFSET 0 0 0
									CHANNELS 3 Zrotation Yrotation Xrotation
									JOINT LeftHandIndex1
									{
										OFFSET 0.41963 -0.00000 0.00000
										CHANNELS 3 Zrotation Yrotation Xrotation
										End Site
										{
											OFFSET 0.33831 -0.00000 0.00000
										}
									}
								}
								JOINT LThumb
								{
									OFFSET 0 0 0
									CHANNELS 3 Zrotation Yrotation Xrotation
									End Site
									{
										OFFSET 0.34348 -0.00000 0.34348
									}
								}
							}
						}
					}
				}
				JOINT RightShoulder
				{
					OFFSET 0 0 0
					CHANNELS 3 Zrotation Yrotation Xrotation
					JOINT RightArm
					{
						OFFSET -2.94710 0.68072 0.32187
						CHANNELS 3 Zrotation Yrotation Xrotation
						JOINT RightForeArm
						{
							OFFSET -5.25396 -0.00000 -0.00000
							CHANNELS 3 Zrotation Yrotation Xrotation
							JOINT RightHand
							{
								OFFSET -3.10567 -0.00000 0.00000
								CHANNELS 3 Zrotation Yrotation Xrotation
								JOINT RightFingerBase
								{
									OFFSET 0 0 0
									CHANNELS 3 Zrotation Yrotation Xrotation
									JOINT RightHandIndex1
									{
										OFFSET -0.49868 -0.00000 0.00000
										CHANNELS 3 Zrotation Yrotation Xrotation
										End Site
										{
											OFFSET -0.40204 -0.00000 0.00000
										}
									}
								}
								JOINT RThumb
								{
									OFFSET 0 0 0
									CHANNELS 3 Zrotation Yrotation Xrotation
									End Site
									{
										OFFSET -0.40818 -0.00000 0.40818
									}
								}
							}
						}
					}
				}
			}
		}
	}
}
MOTION
Frames: 6
Frame Time: .0083333
3.7486 14.3013 8.1734 -0.7134 -9.4259 34.6927 0.0000 0.0000 0.0000 -4.1086 -12.5942 -76.2044 8.3405 16.3641 53.7802 0.2890 2.6771 -11.5008 0.2242 -3.0477 -8.4117 0.0000 0.0000 0.0000 -4.4389 20.5047 -80.6045 -10.6206 -17.7444 61.5432 -0.5313 -5.6664 -17.0031 -0.2871 3.4459 -9.5228 -3.8277 -0.7726 5.1126 0.9538 -1.2673 -2.3006 3.2618 -0.4817 -5.1579 -5.5943 -9.1006 -36.6306 13.0617 -11.5546 4.4595 3.4969 -4.2205 8.0596 -0.0000 0.0000 0.0000 -80.7105 9.2001 50.8458 9.7837 -16.4005 -1.4133 -0.0000 0.0000 -16.8246 36.6830 -2.6759 -1.9918 -7.1250 0.0000 -0.0000 7.6777 26.6275 -3.4514 -0.0000 0.0000 0.0000 69.1380 -3.4427 68.4610 -11.3805 18.8692 -1.8972 0.0000 0.0000 10.9075 -36.0508 -6.9709 5.0485 7.1250 -0.0000 -0.0000 -7.9971 -38.4646 -1.2970
3.7487 14.3428 8.2206 -0.7342 -9.4291 34.7439 0.0000 0.0000 0.0000 -4.2345 -12.6146 -75.6633 8.1818 16.2514 53.2149 0.2860 2.7889 -11.5225 0.2346 -3.1170 -8.6047 0.0000 0.0000 0.0000 -4.4970 20.7667 -80.0581 -10.4675 -17.6645 61.0399 -0.5444 -5.7075 -17.1867 -0.2922 3.4761 -9.6073 -3.8638 -0.7969 4.6567 1.0061 -1.2856 -2.4987 3.3309 -0.4872 -5.1026 -5.6224 -9.1001 -36.3478 13.0651 -11.5853 4.7242 3.4962 -4.2336 8.1219 0.0000 -0.0000 0.0000 -80.8688 9.0373 50.0073 9.6082 -16.1245 -1.3641 -0.0000 0.0000 -15.5702 36.0139 -2.1457 -1.5590 -7.1250 0.0000 -0.0000 7.2265 27.3075 -3.1290 0.0000 -0.0000 0.0000 69.3379 -3.3464 67.7716 -11.2326 18.6439 -1.8496 0.0000 0.0000 11.7439 -34.2879 -7.3360 4.9758 7.1250 -0.0000 -0.0000 -6.4801 -38.7601 -1.0010
3.7488 14.3842 8.2676 -0.7578 -9.4328 34.8007 0.0000 0.0000 0.0000 -4.3488 -12.6418 -75.1248 8.0223 16.1357 52.6431 0.2820 2.9156 -11.5384 0.2452 -3.1862 -8.7975 0.0000 0.0000 0.0000 -4.5612 21.0388 -79.5142 -10.3124 -17.5818 60.5274 -0.5580 -5.7339 -17.3643 -0.2948 3.4914 -9.6499 -3.8930 -0.8239 4.1811 1.0591 -1.3061 -2.6925 3.3963 -0.4945 -5.0312 -5.6557 -9.1003 -36.0677 13.0721 -11.6151 4.9851 3.4979 -4.2462 8.1832 -0.0000 -0.0000 0.0000 -81.0012 8.8932 49.1888 9.4693 -15.9051 -1.3258 -0.0000 0.0000 -14.3989 35.5376 -1.8327 -1.3086 -7.1250 0.0000 -0.0000 6.8939 27.7069 -2.9176 -0.0000 -0.0000 0.0000 69.5468 -3.2351 67.1081 -11.1061 18.4507 -1.8094 0.0000 0.0000 12.2575 -32.7815 -7.7327 4.9524 7.1250 -0.0000 -0.0000 -5.1743 -39.1048 -0.7539
3.7491 14.4255 8.3145 -0.7845 -9.4391 34.8623 0.0000 0.0000 0.0000 -4.4517 -12.6764 -74.5853 7.8619 16.0167 52.0636 0.2771 3.0595 -11.5517 0.2555 -3.2522 -8.9816 0.0000 0.0000 0.0000 -4.6321 21.3226 -78.9719 -10.1552 -17.4962 60.0057 -0.5711 -5.7567 -17.5308 -0.2964 3.5008 -9.6763 -3.9147 -0.8529 3.6876 1.1118 -1.3280 -2.8817 3.4566 -0.5032 -4.9447 -5.6874 -9.0982 -35.7837 13.0742 -11.6408 5.2344 3.4986 -4.2581 8.2388 -0.0000 -0.0000 0.0000 -81.1032 8.7724 48.4448 9.3920 -15.7830 -1.3047 -0.0000 0.0000 -13.4630 35.2182 -1.5072 -1.0637 -7.1250 0.0000 -0.0000 6.6791 28.1128 -2.7611 -0.0000 -0.0000 0.0000 69.7768 -3.1059 66.3821 -10.9882 18.2701 -1.7722 0.0000 0.0000 12.5562 -31.4490 -8.0739 4.9094 7.1250 -0.0000 -0.0000 -4.0086 -39.3906 -0.5552
3.7492 14.4671 8.3614 -0.8126 -9.4474 34.9248 0.0000 0.0000 0.0000 -4.5454 -12.7178 -74.0378 7.6993 15.8935 51.4721 0.2712 3.2201 -11.5624 0.2653 -3.3137 -9.1535 0.0000 0.0000 0.0000 -4.7080 21.6194 -78.4242 -9.9949 -17.4070 59.4715 -0.5815 -5.7940 -17.6772 -0.2981 3.5107 -9.7041 -3.9350 -0.8845 3.1791 1.1663 -1.3524 -3.0627 3.5175 -0.5136 -4.8408 -5.7130 -9.0901 -35.5110 13.0622 -11.6574 5.4761 3.4955 -4.2672 8.2903 0.0000 0.0000 0.0000 -81.1838 8.6638 47.7420 9.3883 -15.7772 -1.3037 -0.0000 0.0000 -12.8457 34.9181 -1.0366 -0.7236 -7.1250 0.0000 -0.0000 6.4890 28.6912 -2.5921 0.0000 0.0000 0.0000 70.0134 -2.9597 65.6016 -10.8758 18.0977 -1.7372 0.0000 0.0000 12.7789 -30.2923 -8.3606 4.8551 7.1250 -0.0000 -0.0000 -2.9895 -39.6223 -0.3966
3.7489 14.5088 8.4082 -0.8374 -9.4565 34.9873 0.0000 0.0000 0.0000 -4.6349 -12.7682 -73.4804 7.5336 15.7653 50.8649 0.2640 3.3979 -11.5665 0.2753 -3.3747 -9.3238 0.0000 0.0000 0.0000 -4.7926 21.9258 -77.8732 -9.8316 -17.3141 58.9241 -0.5873 -5.8572 -17.7898 -0.3003 3.5232 -9.7391 -3.9563 -0.9188 2.6574 1.2199 -1.3797 -3.2326 3.5774 -0.5263 -4.7173 -5.7237 -9.0758 -35.2597 13.0286 -11.6669 5.7125 3.4840 -4.2745 8.3389 -0.0000 0.0000 0.0000 -81.2342 8.5666 47.1440 9.4614 -15.8927 -1.3236 -0.0000 0.0000 -12.5984 34.7180 -0.4370 -0.3028 -7.1250 0.0000 -0.0000 6.3832 29.4204 -2.4382 -0.0000 0.0000 0.0000 70.2542 -2.7967 64.7656 -10.7684 17.9323 -1.7039 0.0000 0.0000 13.0358 -29.3555 -8.6002 4.8077 7.1250 -0.0000 -0.0000 -2.1594 -39.8148 -0.2761
